<svg width="180" height="131" viewBox="0 0 180 131" fill="none" xmlns="http://www.w3.org/2000/svg">
<path fill-rule="evenodd" clip-rule="evenodd" d="M0 0H16.3636H32.7273H49.0909V16.3636V49.0909V65.4545V98.1818H32.7273V65.4545H16.3636V98.1818H0V65.4545V49.0909V16.3636V0ZM32.7273 49.0909V16.3636H16.3636V49.0909H32.7273ZM65.4545 0H81.8182H98.1818H114.545V16.3636V49.0909V65.4545H109.091L114.545 98.1818H98.1818L92.7273 65.4545H81.8182V98.1818H65.4545V65.4545V49.0909V16.3636V0ZM90 49.0909H98.1818V16.3636H81.8182V49.0909H90ZM0 114.545H11.1273V116.885H2.49615V121.449H9.30786V123.777H2.49615V130.909H0V114.545ZM37.6947 114.545L31.0909 130.909H33.7035L35.4156 126.584H42.4753L44.1874 130.909H46.8L40.1962 114.545H37.6947ZM36.3273 124.245L38.951 117.467L41.5636 124.245H36.3273ZM82.9138 114.545L76.7399 122.499L70.5659 114.545H68.4V130.909H70.912V118.996L76.7399 126.47L82.5789 118.996V130.909H85.0909V114.545H82.9138ZM108.982 130.909V114.545H111.6V130.909H108.982ZM135.491 130.909H145.636V128.57H137.969V114.545H135.491V130.909ZM168.653 114.545L172.964 122.374L177.274 114.545H180L174.205 125.067V130.909H171.712V125.067L165.927 114.545H168.653ZM130.909 0H147.273H163.636H180V16.3636V81.8182H171.818L180 98.1818H147.273H130.909V81.8182V16.3636V0ZM147.273 16.3636H163.636V81.8182H147.273V16.3636Z" fill="#4737D6"/>
</svg>
