<svg width="180" height="173" viewBox="0 0 180 173" fill="none" xmlns="http://www.w3.org/2000/svg">
<path fill-rule="evenodd" clip-rule="evenodd" d="M66.3727 87.4308C71.534 89.0238 70.9525 88.0907 73.3803 92.0218L60.8909 92.0354L66.3727 87.4308ZM58.0097 89.8255L62.9787 71.5573L65.2172 85.7128L58.0097 89.8255ZM5.37281 84.3279C14.6792 85.3853 13.4453 85.2414 18.7316 91.7261L10.6193 91.8536C7.23413 88.0048 7.13844 89.1875 5.37281 84.3279ZM132.355 87.7023C127.039 86.7339 126.552 84.8408 126.183 79.6849L133.827 77.1838L132.355 87.7023ZM96.6152 76.3776L106.011 71.1124C108.733 74.9385 108.946 79.393 110.697 83.324C113.83 90.3625 115.831 85.2511 120.132 92.0408L107.784 91.9856C103.171 85.6638 100.868 82.8813 96.6152 76.3776ZM113.229 71.6282C114.572 67.5961 118.256 62.9968 121.675 60.7786L132.192 74.4475C124.566 77.736 119.914 75.9643 113.229 71.6282ZM4.02347 81.725C4.65397 76.5873 9.94567 67.0402 13.3306 63.1854L32.0084 65.0889C29.8898 69.2131 24.5815 73.3252 21.3572 76.9802C14.0275 85.2896 15.0767 83.2803 4.02347 81.725ZM110.74 69.7487C106.857 67.3977 105.65 64.9767 103.304 61.1429L117.099 60.1398L110.74 69.7487ZM88.3291 57.9125L99.2481 55.2282C99.4736 62.2351 100.066 63.18 104.746 67.5274L95.1791 74.8503L88.3291 57.9125ZM17.5113 41.7946L31.798 62.7456L13.4083 60.609L17.5113 41.7946ZM99.3598 11.8607L99.1779 52.5069L66.433 62.0631L99.3598 11.8607ZM101.846 32.8796L125.364 42.6673L118.798 57.4608L101.567 58.3107L101.846 32.8796ZM22.0142 43.6492L61.5894 65.0603C60.7522 71.6456 58.1613 83.5217 54.5743 89.158L22.0142 43.6492ZM158.902 43.1485C160.636 39.6986 163.318 35.0933 166.382 32.8781L175.549 39.7122L170.239 45.4353L158.902 43.1485ZM24.0257 27.6385L56.8007 32.2898L61.1776 62.2131L17.9586 38.2769L24.0257 27.6385ZM101.922 29.613C101.277 12.489 97.4357 9.40882 112.265 2.86204L124.741 39.4392L101.922 29.613ZM16.8355 35.0231C13.8473 30.4653 14.2373 30.8515 15.1061 24.9512L21.2938 26.7673L16.8355 35.0231ZM129.426 40.6164C130.59 38.2429 141.917 18.4066 142.862 17.4262C150.798 9.20048 161.002 19.072 165.706 26.9287L155.862 43.8755L129.426 40.6164ZM52.9505 7.94479L56.1726 29.6364L27.1294 25.3365L52.9505 7.94479ZM152.52 12.7794C153.807 9.26611 155.715 9.75412 159.592 9.09573L158.736 14.2856L152.52 12.7794ZM63.7691 60.7213L55.2719 6.7433L98.3581 8.29622L63.7691 60.7213ZM127.236 38.1721L115.113 3.11325C123.64 4.69408 135.444 8.60617 141.665 15.1023L127.236 38.1721ZM13.0991 21.7782C11.2867 34.0841 12.7657 28.3143 14.5381 37.3115C17.1682 50.6615 2.34447 76.6264 0.321655 82.2711L8.57833 93.7852L23.7745 94.0643C22.7774 90.5902 19.4181 88.5675 16.718 84.9321L34.3571 66.4693L54.4212 94.0244L77.4125 94.0786C75.818 87.5651 72.1042 87.5334 67.0922 84.3498L64.5755 65.356L87.0756 58.7572C90.8943 76.4289 97.0435 81.0463 106.4 93.9995L124.784 94.0198C123.134 83.6047 113.801 92.0165 110.35 73.6073C124.433 78.2428 121.317 77.3875 128.72 91.5006C136.797 88.6475 135.697 81.977 135.911 73.8585L121.745 58.4676L127.52 43.3596C136.719 44.123 146.237 45.9647 155.675 46.1805C167.973 46.461 170.202 51.2323 178.094 39.6972C175.26 35.9863 174.593 36.1341 171.102 33.489C165.033 28.8882 168.435 31.1328 167.419 26.5487C166.133 20.7312 165.073 23.1765 162.368 18.3057C159.493 13.1286 161.557 12.6746 161.891 6.88579C147.769 6.55695 153.106 13.5502 145.369 12.8442C141.338 12.4762 133.308 5.90153 128.724 4.1359C103.596 -5.54541 116.163 6.00943 87.8283 5.00634C65.0386 4.19993 57.1749 1.32414 45.6246 9.42009C17.3386 29.245 26.1511 24.4692 13.0991 21.7782V21.7782Z" fill="#313131"/>
<path fill-rule="evenodd" clip-rule="evenodd" d="M63.769 60.7213L98.3581 8.29623L55.2719 6.7433L63.769 60.7213Z" fill="#00A659"/>
<path fill-rule="evenodd" clip-rule="evenodd" d="M17.9586 38.2769L61.1776 62.2132L56.8007 32.2898L24.0257 27.6385L17.9586 38.2769Z" fill="#DC2B1C"/>
<path fill-rule="evenodd" clip-rule="evenodd" d="M129.426 40.6165L155.862 43.8755L165.706 26.9287C161.002 19.072 150.798 9.20049 142.862 17.4262C141.917 18.4067 130.59 38.2429 129.426 40.6165" fill="white"/>
<path fill-rule="evenodd" clip-rule="evenodd" d="M66.433 62.0631L99.1779 52.5069L99.3597 11.8607L66.433 62.0631Z" fill="white"/>
<path fill-rule="evenodd" clip-rule="evenodd" d="M54.5743 89.158C58.1613 83.5217 60.7521 71.6456 61.5893 65.0603L22.0142 43.6492L54.5743 89.158Z" fill="#00A659"/>
<path fill-rule="evenodd" clip-rule="evenodd" d="M101.922 29.613L124.741 39.4392L112.265 2.86205C97.4357 9.40883 101.277 12.489 101.922 29.613" fill="white"/>
<path fill-rule="evenodd" clip-rule="evenodd" d="M127.236 38.1721L141.665 15.1023C135.444 8.60617 123.64 4.69408 115.113 3.11325L127.236 38.1721Z" fill="white"/>
<path fill-rule="evenodd" clip-rule="evenodd" d="M101.567 58.3107L118.798 57.4608L125.364 42.6673L101.846 32.8796L101.567 58.3107Z" fill="white"/>
<path fill-rule="evenodd" clip-rule="evenodd" d="M4.02344 81.7251C15.0767 83.2803 14.0275 85.2896 21.3572 76.9802C24.5815 73.3252 29.8897 69.2131 32.0084 65.089L13.3306 63.1854C9.94564 67.0402 4.65393 76.5873 4.02344 81.7251" fill="#00A659"/>
<path fill-rule="evenodd" clip-rule="evenodd" d="M27.1294 25.3365L56.1725 29.6364L52.9505 7.94479L27.1294 25.3365Z" fill="white"/>
<path fill-rule="evenodd" clip-rule="evenodd" d="M96.6152 76.3776C100.868 82.8813 103.171 85.6638 107.784 91.9856L120.132 92.0408C115.831 85.2511 113.83 90.3626 110.697 83.324C108.946 79.393 108.733 74.9385 106.011 71.1124L96.6152 76.3776Z" fill="white"/>
<path fill-rule="evenodd" clip-rule="evenodd" d="M13.4083 60.609L31.798 62.7456L17.5114 41.7946L13.4083 60.609Z" fill="white"/>
<path fill-rule="evenodd" clip-rule="evenodd" d="M95.1791 74.8503L104.746 67.5274C100.066 63.18 99.4736 62.2351 99.2481 55.2282L88.3291 57.9125L95.1791 74.8503Z" fill="white"/>
<path fill-rule="evenodd" clip-rule="evenodd" d="M113.229 71.6282C119.914 75.9643 124.566 77.736 132.191 74.4475L121.675 60.7786C118.256 62.9968 114.572 67.5961 113.229 71.6282" fill="white"/>
<path fill-rule="evenodd" clip-rule="evenodd" d="M158.902 43.1485L170.239 45.4353L175.549 39.7122L166.382 32.8781C163.318 35.0933 160.636 39.6986 158.902 43.1485" fill="white"/>
<path fill-rule="evenodd" clip-rule="evenodd" d="M117.099 60.1398L103.304 61.1429C105.65 64.9767 106.857 67.3977 110.74 69.7487L117.099 60.1398Z" fill="white"/>
<path fill-rule="evenodd" clip-rule="evenodd" d="M5.3728 84.3279C7.13844 89.1875 7.23413 88.0048 10.6193 91.8536L18.7316 91.7261C13.4453 85.2414 14.6792 85.3853 5.3728 84.3279" fill="#DC2B1C"/>
<path fill-rule="evenodd" clip-rule="evenodd" d="M65.2173 85.7128L62.9787 71.5573L58.0098 89.8255L65.2173 85.7128Z" fill="white"/>
<path fill-rule="evenodd" clip-rule="evenodd" d="M133.827 77.1838L126.183 79.6849C126.552 84.8408 127.039 86.7339 132.355 87.7023L133.827 77.1838Z" fill="white"/>
<path fill-rule="evenodd" clip-rule="evenodd" d="M16.8356 35.0231L21.2938 26.7673L15.1062 24.9512C14.2373 30.8516 13.8474 30.4653 16.8356 35.0231" fill="white"/>
<path fill-rule="evenodd" clip-rule="evenodd" d="M60.8909 92.0354L73.3802 92.0218C70.9525 88.0907 71.5339 89.0238 66.3727 87.4308L60.8909 92.0354Z" fill="#DC2B1C"/>
<path fill-rule="evenodd" clip-rule="evenodd" d="M152.52 12.7794L158.736 14.2856L159.592 9.09573C155.715 9.75413 153.807 9.26612 152.52 12.7794" fill="white"/>
<path fill-rule="evenodd" clip-rule="evenodd" d="M40.8548 110.017L47.2789 110.051L47.2805 164.875L45.1259 164.972L42.8532 165.03L40.8542 164.685L40.8548 110.017ZM29.9668 138.102L34.5609 138.037C34.7057 145.053 34.6007 152.225 34.5939 159.258C34.5864 167.234 34.7432 171.191 43.4143 171.242C52.4933 171.296 53.6534 169.211 53.622 160.39C53.6005 154.373 53.9834 110.914 53.3758 108.513C51.5564 101.326 34.7956 100.177 34.577 111.116C34.4412 117.915 34.5939 124.908 34.5931 131.763L29.9488 131.581C29.9488 127.552 29.6014 105.623 30.1756 103.499L24.1762 103.544C22.9799 106.475 23.6938 168.837 23.6963 171.178L29.9475 171.217L29.9668 138.102Z" fill="#151616"/>
<path fill-rule="evenodd" clip-rule="evenodd" d="M80.6647 109.907L87.1002 109.898L87.1015 171.187L93.4493 171.226L93.459 109.992L99.8612 110.133L99.8619 171.255L106.136 171.062C106.136 157.5 106.134 143.943 106.139 130.381C106.147 106.604 109.456 101.769 91.8746 103.727L90.5886 105.84L88.9774 103.721C82.1119 103.026 74.7234 102.323 74.3867 109.961C74.102 116.416 74.4191 123.819 74.4197 130.381C74.4217 144.002 74.4675 157.626 74.4047 171.27L80.6776 171.085L80.6647 109.907Z" fill="#151616"/>
<path fill-rule="evenodd" clip-rule="evenodd" d="M134.798 109.992L141.201 110.129L141.206 164.821L139.116 164.959L136.847 165.006L134.795 164.743L134.798 109.992ZM128.516 171.043C131.559 171.441 138.89 171.436 142.021 171.172C146.347 170.807 147.617 168.619 147.591 163.818C147.544 154.937 147.561 146.056 147.563 137.175C147.566 104.78 151.876 102.083 128.525 103.564L128.516 171.043Z" fill="#151616"/>
<path fill-rule="evenodd" clip-rule="evenodd" d="M166.814 109.923L173.241 109.909L173.236 115.659L173.235 133.91L166.841 133.911L166.843 122.453L166.855 120.188L166.814 109.923ZM167.029 140.199L173.205 140.2L173.239 171.21L179.622 170.921C179.666 158.153 179.627 145.428 179.626 132.645C179.625 126.227 179.588 119.797 179.631 113.38C179.68 106.074 177.842 103.452 170.252 103.463C162.627 103.473 160.479 105.797 160.585 113.391L160.542 171.258L166.831 171.195L167.029 140.199Z" fill="#151616"/>
<path fill-rule="evenodd" clip-rule="evenodd" d="M7.88784 110.021L11.1532 109.922L12.293 109.863L14.3056 110.202L14.3182 133.701L12.2854 133.936L10.0186 133.969L7.8785 133.774L7.87716 118.49L7.88784 110.021ZM8.02395 140.195L14.2943 140.356L14.3091 171.245L20.6395 171.06C20.6296 158.253 20.6402 145.452 20.6376 132.645C20.6331 110.11 23.4623 103.587 11.1532 103.524C3.34751 103.485 1.56514 105.787 1.60099 113.476L1.62585 171.171L7.87046 171.464L8.02395 140.195Z" fill="#151616"/>
<path fill-rule="evenodd" clip-rule="evenodd" d="M115.596 110.008L126.19 109.932L125.842 103.485L109.322 103.542L109.497 171.184L126.171 171.229L126.116 164.993L115.597 164.68L115.65 140.224L124.929 140.117L124.774 133.971L115.6 133.593L115.596 110.008Z" fill="#151616"/>
<path fill-rule="evenodd" clip-rule="evenodd" d="M150.826 171.268L157.098 171.08L157.126 103.676C154.656 103.374 153.188 103.311 150.843 103.914L150.838 163.22L150.826 171.268Z" fill="#151616"/>
</svg>
