<svg width="20" height="24" viewBox="0 0 20 24" fill="none" xmlns="http://www.w3.org/2000/svg">
<path fill-rule="evenodd" clip-rule="evenodd" d="M11.0736 1.85586C11.9639 0.814184 13.4536 0.0506692 14.6955 0.000151195C14.7974 -0.00386192 14.8879 0.072466 14.8993 0.175233C15.0433 1.48666 14.5672 2.95074 13.6257 4.09156C12.7311 5.17196 11.4212 5.84293 10.207 5.84293C10.1217 5.84285 10.0362 5.83955 9.95233 5.83302C9.85961 5.82586 9.78461 5.7548 9.77239 5.66274C9.57765 4.19126 10.3169 2.73143 11.0736 1.85586ZM2.70157 20.9264C0.455187 17.6866 -0.836201 12.3434 1.19518 8.82248C2.26346 6.96669 4.20118 5.79486 6.25186 5.76472C6.27227 5.76433 6.29299 5.76409 6.31402 5.76409C7.19598 5.76409 8.0291 6.09427 8.76413 6.38565L8.76475 6.3859C9.31415 6.6036 9.78859 6.79161 10.1542 6.79161C10.4798 6.79161 10.9517 6.60574 11.4982 6.39053C12.2898 6.07877 13.2751 5.69075 14.3037 5.69075C14.4354 5.69075 14.5666 5.69713 14.6936 5.7098C15.5694 5.74741 17.7445 6.06004 19.1637 8.13443C19.1936 8.17818 19.2047 8.23232 19.1941 8.28433C19.1836 8.33642 19.1524 8.38198 19.1078 8.4107L19.0885 8.42266C18.6762 8.67746 16.6202 10.0832 16.6465 12.7379C16.675 16.0053 19.3805 17.2041 19.6889 17.3301L19.7034 17.3363C19.7948 17.3782 19.8399 17.4822 19.808 17.5775L19.8012 17.5989C19.6336 18.135 19.137 19.5381 18.1469 20.9832L18.1468 20.9835C17.198 22.3675 16.1227 23.9362 14.3713 23.9688C13.5549 23.9841 13.0017 23.745 12.4652 23.5132L12.4606 23.5112L12.4603 23.5111C11.9146 23.2752 11.3503 23.0313 10.466 23.0313C9.53643 23.0313 8.94375 23.2835 8.37069 23.5274L8.37007 23.5277C7.85984 23.7447 7.33206 23.9692 6.60181 23.9983C6.57172 23.9995 6.54233 24 6.51302 24C4.95811 24 3.82287 22.5461 2.70157 20.9264Z" fill="white"/>
</svg>
