<svg width="34" height="34" viewBox="0 0 34 34" fill="none" xmlns="http://www.w3.org/2000/svg">
<path fill-rule="evenodd" clip-rule="evenodd" d="M16.2545 0.308542L5.71699 10.8245C5.30646 11.2342 5.30646 11.9006 5.71699 12.3119C6.12922 12.7216 6.79697 12.7216 7.2075 12.3119L15.9547 3.58096L15.9547 32.9477C15.9547 33.5291 16.4266 34 17.0092 34C17.5917 34 18.0636 33.5291 18.0636 32.9477L18.0636 3.60136L26.7921 12.3119C27.2026 12.7216 27.8703 12.7216 28.2826 12.3119C28.487 12.1045 28.5909 11.836 28.5909 11.5674C28.5909 11.2988 28.487 11.0285 28.2826 10.8245L17.745 0.308542C17.3328 -0.102848 16.6668 -0.102848 16.2545 0.308542" fill="black"/>
</svg>
