<svg width="30" height="44" viewBox="0 0 30 44" fill="none" xmlns="http://www.w3.org/2000/svg">
<path fill-rule="evenodd" clip-rule="evenodd" d="M14.0353 0.399288L0.398457 14.0082C-0.132819 14.5383 -0.132819 15.4007 0.398457 15.9331C0.931937 16.4633 1.79609 16.4633 2.32736 15.9331L13.6473 4.63419L13.6473 42.6382C13.6473 43.3906 14.2579 44 15.0118 44C15.7658 44 16.3764 43.3906 16.3764 42.6382L16.3764 4.66058L27.6721 15.9331C28.2034 16.4633 29.0675 16.4633 29.601 15.9331C29.8655 15.6647 30 15.3171 30 14.9695C30 14.6219 29.8655 14.2721 29.601 14.0082L15.9642 0.399288C15.4307 -0.133099 14.5688 -0.133099 14.0353 0.399288Z" fill="black"/>
</svg>
