<svg width="80" height="80" viewBox="0 0 80 80" fill="none" xmlns="http://www.w3.org/2000/svg">
<path fill-rule="evenodd" clip-rule="evenodd" d="M77.3336 21.3337C77.3336 20.5978 77.9295 20.0004 78.6669 20.0004C79.4042 20.0004 80.0002 20.5978 80.0003 21.3339V73.3333C80.0003 77.0094 77.0095 80 73.3336 80H6.66701C2.99092 80 0.000305176 77.0092 0.000305176 73.3333V21.3339C0.000305176 20.5979 0.597648 20.0006 1.33358 20.0006C2.06952 20.0006 2.66686 20.5979 2.66686 21.3339V73.3333C2.66686 75.5386 4.46155 77.3333 6.66685 77.3333H38.6668V74.1987C37.0401 73.5174 32.8748 72.0001 28.0001 72.0001C16.4454 72.0001 7.28455 74.5446 7.03663 74.6135L7.03217 74.6147C6.91217 74.6494 6.78951 74.6668 6.66685 74.6668C6.38014 74.6668 6.09748 74.5747 5.86279 74.3974C5.53076 74.1454 5.33342 73.7507 5.33342 73.3333V14.6672C5.33342 14.0725 5.72811 13.5485 6.30014 13.3858C6.68951 13.2739 15.9521 10.6672 28.0001 10.6672C34.9027 10.6672 40.3666 13.3607 40.596 13.4739C41.048 13.7005 41.3334 14.1619 41.3334 14.6672V65.684C45.396 63.3722 54.8986 58.2082 64 55.0456V3.28342C54.1961 7.22603 44.8054 13.0686 44.7068 13.1313C44.0815 13.5219 43.2588 13.3313 42.8694 12.7072C42.4788 12.0832 42.6694 11.2605 43.2935 10.8699L43.3004 10.8657C43.6269 10.6633 54.3074 4.04416 64.8641 0.0846967C65.2761 -0.0687393 65.7347 -0.0113961 66.0921 0.237976C66.452 0.487193 66.6667 0.896564 66.6667 1.3339V56.0001C66.6667 56.5748 66.3 57.0827 65.7547 57.2654C54.1012 61.1494 40.9804 68.9676 40.6907 69.1403L40.6906 69.1403L40.6905 69.1404L40.6903 69.1405L40.6902 69.1405L40.6868 69.1426C40.2748 69.3906 39.7601 69.3973 39.3427 69.16C38.9254 68.924 38.6668 68.48 38.6668 68V15.5311C37.0307 14.8471 32.8615 13.3338 28.0001 13.3338C18.5268 13.3338 10.6628 15.0444 8.00013 15.6991V71.6173C11.2508 70.8479 18.816 69.3332 28.0001 69.3332C33.7388 69.3332 38.4827 71.1946 40.0521 71.8879C41.8176 71.2412 47.5241 69.3332 53.3335 69.3332C62.2696 69.3332 68.9788 70.7692 72.0002 71.5612V15.7511C71.5602 15.663 70.9895 15.5524 70.3081 15.427C69.5841 15.2938 69.1055 14.5991 69.2388 13.8738C69.3722 13.1511 70.0694 12.6711 70.7908 12.8044C72.5775 13.1325 73.6228 13.3658 73.6228 13.3658C74.2336 13.5005 74.6669 14.0419 74.6669 14.6672V73.333C74.6669 73.7612 74.4616 74.1638 74.1136 74.4144C73.763 74.6652 73.3149 74.7318 72.9136 74.5985C72.835 74.5719 64.9483 71.9999 53.3336 71.9999C48.3416 71.9999 43.2777 73.5852 41.3337 74.2652V77.3332H73.3336C75.5389 77.3332 77.3336 75.5385 77.3336 73.3332V21.3337ZM46.6682 22.6671C46.8708 22.6671 47.0788 22.6204 47.2722 22.5218C47.3508 22.4818 55.1989 18.4951 59.0696 17.2725C59.771 17.0498 60.1602 16.3005 59.9375 15.5992C59.7161 14.8978 58.9722 14.5072 58.2643 14.7286C54.1878 16.0177 46.3958 19.9761 46.0619 20.1458L46.0617 20.1459L46.0617 20.1459L46.0616 20.1459C45.4057 20.4792 45.1443 21.2818 45.4776 21.9392C45.7135 22.4004 46.1829 22.6671 46.6682 22.6671ZM45.4776 37.9388C45.7135 38.4002 46.1829 38.6668 46.6682 38.6668C46.8708 38.6668 47.0788 38.6201 47.2722 38.5215C47.3508 38.4815 55.1989 34.4948 59.0695 33.2722C59.771 33.0495 60.1602 32.3001 59.9375 31.5989C59.7161 30.8975 58.9722 30.5069 58.2642 30.7283C54.1869 32.0176 46.3922 35.9776 46.0616 36.1456C45.4055 36.4789 45.1443 37.2817 45.4776 37.9388ZM45.4776 29.939C45.7135 30.4004 46.1829 30.6669 46.6682 30.6669C46.8708 30.6669 47.0788 30.6202 47.2722 30.5216C47.3508 30.4816 55.1989 26.4949 59.0695 25.2723C59.771 25.0496 60.1602 24.3003 59.9375 23.599C59.7161 22.8976 58.9722 22.507 58.2642 22.7284C54.1871 24.0177 46.3929 27.9774 46.0617 28.1457L46.0616 28.1457C45.4055 28.479 45.1443 29.2818 45.4776 29.939ZM46.6682 46.6667C46.1829 46.6667 45.7135 46.4001 45.4776 45.9387C45.1443 45.2815 45.4055 44.4787 46.0616 44.1455L46.0617 44.1454C46.3938 43.9767 54.1873 40.0174 58.2642 38.7282C58.9722 38.5068 59.7161 38.8974 59.9375 39.5988C60.1602 40.3 59.771 41.0494 59.0695 41.272C55.1989 42.4947 47.3508 46.4814 47.2722 46.5214C47.0788 46.62 46.8708 46.6667 46.6682 46.6667ZM32.3043 24.7444C24.071 22.8124 14.715 25.2738 14.3217 25.3791C13.6111 25.5697 13.1884 26.3003 13.379 27.0123C13.539 27.6083 14.0776 28.0003 14.6657 28.0003C14.7804 28.0003 14.8964 27.9856 15.0125 27.955C15.1018 27.9297 24.1098 25.5603 31.6965 27.3403C32.4098 27.507 33.1312 27.063 33.2991 26.3456C33.467 25.6297 33.0216 24.9123 32.3043 24.7444ZM14.3217 33.3791C14.715 33.2738 24.071 30.8138 32.3043 32.7444C33.0216 32.9123 33.467 33.6297 33.2991 34.3456C33.1312 35.063 32.4098 35.507 31.6965 35.3403C24.1098 33.5603 15.1018 35.9297 15.0125 35.955C14.8964 35.9856 14.7804 36.0003 14.6657 36.0003C14.0776 36.0003 13.539 35.6083 13.379 35.0123C13.1884 34.3005 13.6111 33.5697 14.3217 33.3791ZM45.4776 53.9388C45.7135 54.4002 46.1829 54.6667 46.6682 54.6667C46.8708 54.6667 47.0788 54.62 47.2722 54.5214C47.3508 54.4814 55.1989 50.4948 59.0695 49.2721C59.771 49.0495 60.1602 48.3001 59.9375 47.5988C59.7161 46.8976 58.9722 46.5068 58.2642 46.7282C54.1873 48.0175 46.3938 51.9768 46.0617 52.1455L46.0616 52.1455C45.4055 52.4788 45.1443 53.2816 45.4776 53.9388ZM14.3217 41.379C14.715 41.2723 24.071 38.8138 32.3043 40.7444C33.0216 40.9123 33.467 41.6297 33.2991 42.3456C33.1312 43.0629 32.4098 43.507 31.6965 43.3403C24.1098 41.5603 15.1018 43.9296 15.0125 43.955C14.8964 43.9857 14.7804 44.0017 14.6657 44.0017C14.0776 44.0017 13.539 43.6082 13.379 43.0123C13.1884 42.3004 13.6111 41.5697 14.3217 41.379ZM32.3043 56.7441C24.071 54.8121 14.715 57.2735 14.3217 57.3788C13.6111 57.5694 13.1884 58.3002 13.379 59.012C13.539 59.608 14.0776 60.0014 14.6657 60.0014C14.7804 60.0014 14.8964 59.9855 15.0125 59.9547C15.1018 59.9294 24.1098 57.56 31.6965 59.34C32.4098 59.5053 33.1312 59.0627 33.2991 58.3453C33.467 57.6294 33.0216 56.9121 32.3043 56.7441ZM14.3217 49.3788C14.715 49.2721 24.071 46.8121 32.3043 48.7441C33.0216 48.9121 33.467 49.6294 33.2991 50.3454C33.1312 51.0627 32.4098 51.5067 31.6965 51.34C24.1098 49.56 15.1018 51.9294 15.0125 51.9547C14.8964 51.9855 14.7804 52.0014 14.6657 52.0014C14.0776 52.0014 13.539 51.608 13.379 51.0121C13.1884 50.3002 13.6111 49.5694 14.3217 49.3788Z" fill="#3D3BEE"/>
</svg>
