<svg width="164" height="64" viewBox="0 0 164 64" fill="none" xmlns="http://www.w3.org/2000/svg">
<path fill-rule="evenodd" clip-rule="evenodd" d="M0 10V30V40V60H10V40H20V60H30V40V30V10V0H20H10H0V10ZM20 10H10V30H20V10ZM50 0H40V10V30V40V60H50V40H56.6667L60 60H70L66.6667 40H70V30V10V0H60H50ZM60 30H55H50V10H60V30ZM80 0H90H100H110V10V50H105L110 60H90H80V50V10V0ZM90 10H100V50H90V10Z" fill="#4737D6"/>
<path d="M128.104 60V54.4189C128.104 53.5049 127.761 52.7402 127.093 52.1162C126.416 51.4922 125.555 51.1758 124.5 51.1758C124.078 51.1758 123.665 51.2373 123.27 51.3516C122.874 51.4658 122.558 51.5977 122.32 51.7383C122.074 51.8877 121.846 52.0547 121.635 52.2393C121.424 52.4238 121.283 52.5557 121.222 52.626C121.16 52.6963 121.116 52.7578 121.081 52.8018L122.25 53.9707L122.487 53.6631C122.628 53.4697 122.883 53.2852 123.252 53.0918C123.621 52.8984 124.043 52.8018 124.5 52.8018C125.027 52.8018 125.458 52.96 125.792 53.2676C126.126 53.584 126.302 53.9619 126.302 54.4189L123.146 54.9639C122.364 55.0957 121.749 55.4033 121.301 55.8779C120.853 56.3613 120.633 56.959 120.633 57.6709C120.633 58.3213 120.923 58.9102 121.503 59.4199C122.083 59.9297 122.812 60.1846 123.691 60.1846C123.99 60.1846 124.28 60.1406 124.579 60.0703C124.869 59.9912 125.115 59.9033 125.309 59.8066C125.502 59.71 125.678 59.6045 125.845 59.4814C126.012 59.3584 126.126 59.2793 126.179 59.2266C126.231 59.1738 126.275 59.1299 126.302 59.1123V60.0088L128.104 60ZM123.964 58.5674C123.489 58.5674 123.12 58.4531 122.839 58.2422C122.558 58.0225 122.426 57.7676 122.426 57.4775C122.426 57.1699 122.522 56.915 122.725 56.7129C122.918 56.502 123.182 56.3701 123.507 56.3174L126.302 55.8691V56.0449C126.302 56.8535 126.091 57.4688 125.678 57.9082C125.265 58.3477 124.693 58.5674 123.964 58.5674ZM132.233 47.3965H130.44V60H132.233V47.3965ZM139.148 60.1758C140.291 60.1758 141.275 59.7451 142.119 58.8662C142.963 57.9873 143.385 56.9238 143.385 55.6758C143.385 54.4277 142.963 53.373 142.119 52.4941C141.275 51.6152 140.291 51.1758 139.148 51.1758C138.639 51.1758 138.147 51.29 137.663 51.501C137.171 51.7207 136.855 51.8965 136.705 52.0283C136.556 52.1689 136.441 52.2744 136.362 52.3535V51.3604H134.561V63.7793H136.362V59.0068L136.485 59.1387C136.556 59.209 136.679 59.3057 136.846 59.4287C137.013 59.5518 137.206 59.666 137.426 59.7803C137.637 59.8945 137.9 59.9912 138.208 60.0615C138.507 60.1406 138.823 60.1758 139.148 60.1758ZM138.973 52.8018C139.658 52.8018 140.265 53.083 140.792 53.6455C141.319 54.208 141.583 54.8936 141.583 55.6846C141.583 56.4756 141.319 57.1523 140.792 57.7148C140.265 58.2773 139.658 58.5586 138.973 58.5586C138.287 58.5586 137.681 58.2773 137.153 57.7148C136.626 57.1523 136.362 56.4756 136.362 55.6846C136.362 54.8936 136.626 54.208 137.153 53.6455C137.681 53.083 138.287 52.8018 138.973 52.8018ZM146.961 47.3965H145.168V60H146.961V55.3242C146.961 54.5332 147.163 53.9092 147.567 53.4697C147.971 53.0303 148.525 52.8018 149.211 52.8018C149.799 52.8018 150.292 53.0127 150.687 53.417C151.083 53.8301 151.285 54.3486 151.285 54.9727V60.0088H153.086V54.9727C153.086 53.8125 152.761 52.8984 152.111 52.2129C151.461 51.5273 150.608 51.1846 149.571 51.1846C149.272 51.1846 148.973 51.2197 148.683 51.2988C148.384 51.3779 148.147 51.4658 147.954 51.5625C147.76 51.6592 147.576 51.7646 147.409 51.8877C147.242 52.0107 147.127 52.0986 147.075 52.1514C147.022 52.2041 146.978 52.2393 146.961 52.2656V47.3965ZM162.164 60V54.4189C162.164 53.5049 161.821 52.7402 161.153 52.1162C160.477 51.4922 159.615 51.1758 158.561 51.1758C158.139 51.1758 157.726 51.2373 157.33 51.3516C156.935 51.4658 156.618 51.5977 156.381 51.7383C156.135 51.8877 155.906 52.0547 155.695 52.2393C155.484 52.4238 155.344 52.5557 155.282 52.626C155.221 52.6963 155.177 52.7578 155.142 52.8018L156.311 53.9707L156.548 53.6631C156.689 53.4697 156.943 53.2852 157.313 53.0918C157.682 52.8984 158.104 52.8018 158.561 52.8018C159.088 52.8018 159.519 52.96 159.853 53.2676C160.187 53.584 160.362 53.9619 160.362 54.4189L157.207 54.9639C156.425 55.0957 155.81 55.4033 155.361 55.8779C154.913 56.3613 154.693 56.959 154.693 57.6709C154.693 58.3213 154.983 58.9102 155.564 59.4199C156.144 59.9297 156.873 60.1846 157.752 60.1846C158.051 60.1846 158.341 60.1406 158.64 60.0703C158.93 59.9912 159.176 59.9033 159.369 59.8066C159.563 59.71 159.738 59.6045 159.905 59.4814C160.072 59.3584 160.187 59.2793 160.239 59.2266C160.292 59.1738 160.336 59.1299 160.362 59.1123V60.0088L162.164 60ZM158.024 58.5674C157.55 58.5674 157.181 58.4531 156.899 58.2422C156.618 58.0225 156.486 57.7676 156.486 57.4775C156.486 57.1699 156.583 56.915 156.785 56.7129C156.979 56.502 157.242 56.3701 157.567 56.3174L160.362 55.8691V56.0449C160.362 56.8535 160.151 57.4688 159.738 57.9082C159.325 58.3477 158.754 58.5674 158.024 58.5674Z" fill="#D00202"/>
</svg>
