<svg width="188" height="60" viewBox="0 0 188 60" fill="none" xmlns="http://www.w3.org/2000/svg">
<path fill-rule="evenodd" clip-rule="evenodd" d="M60.4317 30C60.4317 46.5683 46.9034 60 30.2158 60C13.5283 60 0 46.5683 0 30C0 13.4317 13.5283 0 30.2158 0C46.9034 0 60.4317 13.4317 60.4317 30" fill="#3D3BEE"/>
<path fill-rule="evenodd" clip-rule="evenodd" d="M30.2158 0C24.7107 0 19.553 1.46917 15.1079 4.02333V4.02333C24.1374 9.21167 30.2158 18.8975 30.2158 30V30C30.2158 41.1025 36.2942 50.7883 45.3237 55.9758V55.9758C49.7697 58.5308 54.9265 60 60.4317 60V60V30C60.4317 13.4317 46.9034 0 30.2158 0Z" fill="url(#paint0_linear)"/>
<path fill-rule="evenodd" clip-rule="evenodd" d="M89.8426 19.5207H93.5703L102.471 40H97.3847L95.622 35.6612H87.6753L85.9703 40H81L89.8426 19.5207ZM91.5764 25.4793L89.0912 31.843H94.0904L91.5764 25.4793ZM103.927 19.5207H111.845C112.886 19.5207 113.873 19.6219 114.807 19.8244C115.742 20.0269 116.56 20.3643 117.263 20.8368C117.967 21.3092 118.525 21.9456 118.94 22.7459C119.354 23.5461 119.561 24.5441 119.561 25.7397C119.561 27.186 119.185 28.4153 118.434 29.4277C117.682 30.4401 116.584 31.0813 115.14 31.3512L120.341 40H114.937L110.66 31.814H108.435V40H103.927V19.5207ZM108.435 27.9959H111.094C111.498 27.9959 111.927 27.9814 112.38 27.9525C112.833 27.9236 113.242 27.8368 113.608 27.6921C113.974 27.5475 114.277 27.3209 114.518 27.0124C114.759 26.7039 114.879 26.27 114.879 25.7107C114.879 25.1901 114.774 24.7755 114.562 24.4669C114.35 24.1584 114.08 23.9222 113.752 23.7583C113.425 23.5944 113.049 23.4835 112.625 23.4256C112.202 23.3678 111.787 23.3388 111.383 23.3388H108.435V27.9959ZM144.453 40H132.056C130.457 40 128.979 39.7638 127.621 39.2913C126.262 38.8189 125.092 38.1295 124.11 37.2231C123.127 36.3168 122.356 35.2176 121.798 33.9256C121.239 32.6336 120.96 31.1584 120.96 29.5C120.96 27.9573 121.244 26.54 121.812 25.2479C122.381 23.9559 123.156 22.8471 124.138 21.9215C125.121 20.9959 126.277 20.2776 127.606 19.7665C128.935 19.2555 130.361 19 131.883 19C133.405 19 134.83 19.2603 136.16 19.781C137.489 20.3017 138.645 21.0248 139.627 21.9504C140.61 22.876 141.385 23.98 141.954 25.2624C142.522 26.5448 142.806 27.9573 142.806 29.5C142.806 30.2328 142.724 30.9463 142.56 31.6405C142.397 32.3347 142.151 32.9904 141.824 33.6074C141.496 34.2245 141.072 34.7789 140.552 35.2707C140.032 35.7624 139.425 36.1625 138.732 36.4711V36.5289H144.453V40ZM125.641 29.5C125.641 30.3871 125.805 31.2162 126.132 31.9876C126.46 32.759 126.908 33.4291 127.476 33.9979C128.044 34.5668 128.704 35.0151 129.456 35.343C130.207 35.6708 131.016 35.8347 131.883 35.8347C132.75 35.8347 133.559 35.6708 134.31 35.343C135.062 35.0151 135.721 34.5668 136.29 33.9979C136.858 33.4291 137.306 32.759 137.633 31.9876C137.961 31.2162 138.125 30.3871 138.125 29.5C138.125 28.6129 137.961 27.7838 137.633 27.0124C137.306 26.241 136.858 25.5709 136.29 25.0021C135.721 24.4332 135.062 23.9849 134.31 23.657C133.559 23.3292 132.75 23.1653 131.883 23.1653C131.016 23.1653 130.207 23.3292 129.456 23.657C128.704 23.9849 128.044 24.4332 127.476 25.0021C126.908 25.5709 126.46 26.241 126.132 27.0124C125.805 27.7838 125.641 28.6129 125.641 29.5Z" fill="black"/>
<path d="M152.104 19V13.4189C152.104 12.5049 151.761 11.7402 151.093 11.1162C150.416 10.4922 149.555 10.1758 148.5 10.1758C148.078 10.1758 147.665 10.2373 147.27 10.3516C146.874 10.4658 146.558 10.5977 146.32 10.7383C146.074 10.8877 145.846 11.0547 145.635 11.2393C145.424 11.4238 145.283 11.5557 145.222 11.626C145.16 11.6963 145.116 11.7578 145.081 11.8018L146.25 12.9707L146.487 12.6631C146.628 12.4697 146.883 12.2852 147.252 12.0918C147.621 11.8984 148.043 11.8018 148.5 11.8018C149.027 11.8018 149.458 11.96 149.792 12.2676C150.126 12.584 150.302 12.9619 150.302 13.4189L147.146 13.9639C146.364 14.0957 145.749 14.4033 145.301 14.8779C144.853 15.3613 144.633 15.959 144.633 16.6709C144.633 17.3213 144.923 17.9102 145.503 18.4199C146.083 18.9297 146.812 19.1846 147.691 19.1846C147.99 19.1846 148.28 19.1406 148.579 19.0703C148.869 18.9912 149.115 18.9033 149.309 18.8066C149.502 18.71 149.678 18.6045 149.845 18.4814C150.012 18.3584 150.126 18.2793 150.179 18.2266C150.231 18.1738 150.275 18.1299 150.302 18.1123V19.0088L152.104 19ZM147.964 17.5674C147.489 17.5674 147.12 17.4531 146.839 17.2422C146.558 17.0225 146.426 16.7676 146.426 16.4775C146.426 16.1699 146.522 15.915 146.725 15.7129C146.918 15.502 147.182 15.3701 147.507 15.3174L150.302 14.8691V15.0449C150.302 15.8535 150.091 16.4688 149.678 16.9082C149.265 17.3477 148.693 17.5674 147.964 17.5674ZM156.233 6.39648H154.44V19H156.233V6.39648ZM163.148 19.1758C164.291 19.1758 165.275 18.7451 166.119 17.8662C166.963 16.9873 167.385 15.9238 167.385 14.6758C167.385 13.4277 166.963 12.373 166.119 11.4941C165.275 10.6152 164.291 10.1758 163.148 10.1758C162.639 10.1758 162.147 10.29 161.663 10.501C161.171 10.7207 160.855 10.8965 160.705 11.0283C160.556 11.1689 160.441 11.2744 160.362 11.3535V10.3604H158.561V22.7793H160.362V18.0068L160.485 18.1387C160.556 18.209 160.679 18.3057 160.846 18.4287C161.013 18.5518 161.206 18.666 161.426 18.7803C161.637 18.8945 161.9 18.9912 162.208 19.0615C162.507 19.1406 162.823 19.1758 163.148 19.1758ZM162.973 11.8018C163.658 11.8018 164.265 12.083 164.792 12.6455C165.319 13.208 165.583 13.8936 165.583 14.6846C165.583 15.4756 165.319 16.1523 164.792 16.7148C164.265 17.2773 163.658 17.5586 162.973 17.5586C162.287 17.5586 161.681 17.2773 161.153 16.7148C160.626 16.1523 160.362 15.4756 160.362 14.6846C160.362 13.8936 160.626 13.208 161.153 12.6455C161.681 12.083 162.287 11.8018 162.973 11.8018ZM170.961 6.39648H169.168V19H170.961V14.3242C170.961 13.5332 171.163 12.9092 171.567 12.4697C171.971 12.0303 172.525 11.8018 173.211 11.8018C173.799 11.8018 174.292 12.0127 174.687 12.417C175.083 12.8301 175.285 13.3486 175.285 13.9727V19.0088H177.086V13.9727C177.086 12.8125 176.761 11.8984 176.111 11.2129C175.461 10.5273 174.608 10.1846 173.571 10.1846C173.272 10.1846 172.973 10.2197 172.683 10.2988C172.384 10.3779 172.147 10.4658 171.954 10.5625C171.76 10.6592 171.576 10.7646 171.409 10.8877C171.242 11.0107 171.127 11.0986 171.075 11.1514C171.022 11.2041 170.978 11.2393 170.961 11.2656V6.39648ZM186.164 19V13.4189C186.164 12.5049 185.821 11.7402 185.153 11.1162C184.477 10.4922 183.615 10.1758 182.561 10.1758C182.139 10.1758 181.726 10.2373 181.33 10.3516C180.935 10.4658 180.618 10.5977 180.381 10.7383C180.135 10.8877 179.906 11.0547 179.695 11.2393C179.484 11.4238 179.344 11.5557 179.282 11.626C179.221 11.6963 179.177 11.7578 179.142 11.8018L180.311 12.9707L180.548 12.6631C180.689 12.4697 180.943 12.2852 181.313 12.0918C181.682 11.8984 182.104 11.8018 182.561 11.8018C183.088 11.8018 183.519 11.96 183.853 12.2676C184.187 12.584 184.362 12.9619 184.362 13.4189L181.207 13.9639C180.425 14.0957 179.81 14.4033 179.361 14.8779C178.913 15.3613 178.693 15.959 178.693 16.6709C178.693 17.3213 178.983 17.9102 179.564 18.4199C180.144 18.9297 180.873 19.1846 181.752 19.1846C182.051 19.1846 182.341 19.1406 182.64 19.0703C182.93 18.9912 183.176 18.9033 183.369 18.8066C183.563 18.71 183.738 18.6045 183.905 18.4814C184.072 18.3584 184.187 18.2793 184.239 18.2266C184.292 18.1738 184.336 18.1299 184.362 18.1123V19.0088L186.164 19ZM182.024 17.5674C181.55 17.5674 181.181 17.4531 180.899 17.2422C180.618 17.0225 180.486 16.7676 180.486 16.4775C180.486 16.1699 180.583 15.915 180.785 15.7129C180.979 15.502 181.242 15.3701 181.567 15.3174L184.362 14.8691V15.0449C184.362 15.8535 184.151 16.4688 183.738 16.9082C183.325 17.3477 182.754 17.5674 182.024 17.5674Z" fill="#D00202"/>
<defs>
<linearGradient id="paint0_linear" x1="17.1472" y1="22.5125" x2="44.9788" y2="38.0618" gradientUnits="userSpaceOnUse">
<stop stop-color="#3736C1" stop-opacity="0.01"/>
<stop offset="1" stop-color="#3736C1"/>
</linearGradient>
</defs>
</svg>
