<svg width="70" height="80" viewBox="0 0 70 80" fill="none" xmlns="http://www.w3.org/2000/svg">
<path fill-rule="evenodd" clip-rule="evenodd" d="M13.5905 14.1327C13.8652 14.3536 14.1899 14.4604 14.5122 14.4604C14.9616 14.4604 15.4063 14.2523 15.7033 13.8556L22.3092 5.01465C23.1939 3.83118 24.5832 3.125 26.026 3.125H26.7624C28.2235 3.125 29.5763 3.81104 30.4739 5.00732C31.3885 6.22681 32.7666 6.92566 34.2559 6.92566H49.8035C50.6352 6.92566 51.3093 6.2262 51.3093 5.36316C51.3093 4.50073 50.6352 3.80066 49.8035 3.80066H34.2559C33.7025 3.80066 33.1901 3.54065 32.8502 3.08777C31.3779 1.12549 29.1593 0 26.7624 0H26.026C23.6591 0 21.3799 1.15906 19.9294 3.09998L13.3235 11.9403C12.8135 12.6221 12.9335 13.6035 13.5905 14.1327ZM69.5455 31.6753C69.5455 31.1211 69.2625 30.6084 68.8026 30.3277C68.342 30.0475 67.7732 30.0402 67.3068 30.31L49.0795 40.8434C48.6024 41.1193 48.3066 41.6417 48.3066 42.2082V54.1961H44.3093L41.3948 18.4801C41.3289 17.6714 40.6766 17.0495 39.8949 17.0495H38.4044L39.4149 15.3417C39.7367 14.7979 40.3178 14.4604 40.9331 14.4604H56.303C57.1347 14.4604 57.8088 13.7609 57.8088 12.8979C57.8088 12.0348 57.1347 11.3354 56.303 11.3354H40.9325C39.2785 11.3354 37.7133 12.2442 36.8481 13.7072L34.8706 17.0495H31.532C30.7498 17.0495 30.098 17.6714 30.0322 18.4801L29.2169 28.471C29.2146 28.4893 29.2134 28.5082 29.2122 28.5271L28.3923 38.5692C28.3905 38.5875 28.3894 38.6065 28.3882 38.6248L27.5688 48.6663L27.5678 48.6753L27.5668 48.6855L27.5651 48.7066L27.5635 48.7255L27.1171 54.1955H24.6555L21.7405 18.4801C21.6746 17.6714 21.0229 17.0495 20.2406 17.0495H11.8783C11.096 17.0495 10.4437 17.6714 10.3779 18.4801L7.46339 54.1955H1.96031C1.12861 54.1955 0.454544 54.8949 0.454544 55.758V78.4374C0.454544 79.3004 1.12861 79.9999 1.96031 79.9999H68.0397C68.8708 79.9999 69.5455 79.3004 69.5455 78.4374C69.5455 77.5744 68.8708 76.8749 68.0397 76.8749H51.3181V43.1267L66.5339 34.3334V63.8018C66.5339 64.6648 67.208 65.3643 68.0397 65.3643C68.8708 65.3643 69.5455 64.6648 69.5455 63.8018V31.6753ZM30.4486 50.4083H34.7718C35.6035 50.4083 36.2775 49.7088 36.2775 48.8458C36.2775 47.9827 35.6035 47.2833 34.7718 47.2833H30.7039L31.2726 40.31H34.7718C35.6035 40.31 36.2775 39.6105 36.2775 38.7475C36.2775 37.8845 35.6035 37.185 34.7718 37.185H31.5273L32.0967 30.2117H34.7718C35.6035 30.2117 36.2775 29.5123 36.2775 28.6492C36.2775 27.7868 35.6035 27.0867 34.7718 27.0867H32.3514L32.9155 20.1745H35.7088L35.7098 20.1747L35.7112 20.1751L35.7117 20.1751C35.7123 20.1751 35.7129 20.175 35.7135 20.1748L35.7143 20.1746L35.7152 20.1745H38.5109L41.2871 54.1961H30.1392L30.4486 50.4083ZM15.1192 50.4083H10.7943L10.4855 54.1961H21.6328L18.8566 20.1745H13.2617L12.6977 27.0867H15.1187C15.9504 27.0867 16.6244 27.7868 16.6244 28.6492C16.6244 29.5123 15.9504 30.2117 15.1187 30.2117H12.4424L11.8736 37.185H15.1187C15.9504 37.185 16.6244 37.8845 16.6244 38.7475C16.6244 39.6105 15.9504 40.31 15.1187 40.31H11.6184L11.0496 47.2833H15.1192C15.9504 47.2833 16.625 47.9827 16.625 48.8458C16.625 49.7088 15.9504 50.4083 15.1192 50.4083ZM3.46607 57.3211H48.306V76.875H32.2173V67.0977C32.2173 66.2347 31.5432 65.5352 30.7115 65.5352H19.6742C18.8425 65.5352 18.1684 66.2347 18.1684 67.0977V76.875H3.46607V57.3211ZM21.1799 68.6601V76.8748H29.2058V68.6601H21.1799ZM62.9942 14.4575C62.3566 14.5033 61.7502 14.1041 61.5055 13.4956C61.2297 12.8083 61.4773 11.9844 62.0831 11.584C62.5901 11.2489 63.2566 11.258 63.7518 11.6133C64.2688 11.9844 64.5141 12.6722 64.3506 13.3027C64.1841 13.9424 63.6306 14.4117 62.9942 14.4575ZM54.1373 49.8231C54.1373 47.0143 56.3395 44.7291 59.0463 44.7291C61.7537 44.7291 63.9559 47.0143 63.9559 49.8231C63.9559 52.6325 61.7537 54.9177 59.0463 54.9177C56.3395 54.9177 54.1373 52.6325 54.1373 49.8231ZM57.1488 49.8231C57.1488 50.9089 58.0005 51.7927 59.0463 51.7927C60.0927 51.7927 60.9444 50.9095 60.9444 49.8231C60.9444 48.7373 60.0927 47.8541 59.0463 47.8541C58.0005 47.8541 57.1488 48.7379 57.1488 49.8231ZM59.0463 58.722C56.3395 58.722 54.1373 61.0071 54.1373 63.816C54.1373 66.6254 56.3395 68.9106 59.0463 68.9106C61.7537 68.9106 63.9559 66.6254 63.9559 63.816C63.9559 61.0071 61.7537 58.722 59.0463 58.722ZM59.0463 65.785C58.0005 65.785 57.1488 64.9018 57.1488 63.816C57.1488 62.7302 58.0005 61.847 59.0463 61.847C60.0927 61.847 60.9444 62.7302 60.9444 63.816C60.9444 64.9018 60.0927 65.785 59.0463 65.785ZM22.9439 10.9363L22.0793 12.0996C21.5711 12.7832 21.6934 13.7646 22.3522 14.2914C22.6257 14.5105 22.9492 14.6167 23.2704 14.6167C23.7215 14.6167 24.1673 14.4073 24.4638 14.0082L25.329 12.8442C25.9325 12.0325 26.8824 11.5479 27.8706 11.5479C28.7023 11.5479 29.3763 10.8484 29.3763 9.98535C29.3763 9.12231 28.7023 8.42285 27.8706 8.42285C25.9554 8.42285 24.1138 9.36218 22.9439 10.9363ZM67.6262 69.4537C68.2438 69.27 68.9373 69.5276 69.2908 70.0872C69.6902 70.6933 69.6013 71.5442 69.1037 72.0593C68.6644 72.5146 67.9844 72.6428 67.4186 72.3779C66.848 72.1112 66.4851 71.4752 66.5392 70.827C66.5928 70.1849 67.0286 69.6319 67.6262 69.4537Z" fill="#3D3BEE"/>
</svg>
