<svg width="80" height="80" viewBox="0 0 80 80" fill="none" xmlns="http://www.w3.org/2000/svg">
<path fill-rule="evenodd" clip-rule="evenodd" d="M74.856 66.3255H70.9485V47.084C72.4475 47.0679 73.6627 45.8756 73.6627 44.4111V32.3509C76.8542 31.6481 79.2456 28.8585 79.2456 25.5317C79.2456 21.6784 76.0345 18.5439 72.0868 18.5439C70.9052 18.5439 69.7693 18.8334 68.7634 19.3503L40.7153 3.83644C40.2362 3.57142 39.6497 3.56963 39.1693 3.83227L10.7648 19.3342C9.76624 18.8274 8.64136 18.5439 7.47131 18.5439C3.52417 18.5439 0.3125 21.6784 0.3125 25.5317C0.3125 28.9907 2.89856 31.8697 6.28052 32.4253V44.4111C6.28052 45.8756 7.4939 47.0679 8.99048 47.084V66.3255H5.14465C2.30774 66.3255 0 68.5761 0 71.3425C0 74.1113 2.30774 76.3637 5.14465 76.3637H74.856C77.6923 76.3637 80 74.1113 80 71.3425C80 68.5761 77.6923 66.3255 74.856 66.3255ZM56.8066 66.3255V50.9248C56.8066 47.1644 53.6731 44.1056 49.8206 44.1056C45.9711 44.1056 42.8394 47.1644 42.8394 50.9248V66.3255H37.1045V50.9248C37.1045 47.1644 33.9703 44.1056 30.1184 44.1056C26.2683 44.1056 23.1366 47.1644 23.1366 50.9248V66.3255H18.4821V47.084C19.9817 47.0679 21.1963 45.8756 21.1963 44.4111V39.487H58.7469V44.4111C58.7469 45.8756 59.9597 47.0679 61.4569 47.084V66.3255H56.8066ZM45.9906 66.3255H53.6554V50.9248C53.6554 48.86 51.9354 47.1805 49.8206 47.1805C47.7087 47.1805 45.9906 48.86 45.9906 50.9248V66.3255ZM33.9526 66.3255H26.2878V50.9248C26.2878 48.86 28.006 47.1805 30.1184 47.1805C32.2327 47.1805 33.9532 48.86 33.9532 50.9248V66.3255H33.9526ZM9.43237 39.487V44.0103H18.0444V39.487H9.43237ZM70.5109 39.487V44.0103H61.8982V39.487H70.5109ZM67.7972 47.0851H64.6082V66.3255H67.7972V47.0851ZM39.9335 6.93867L66.2476 21.4937C66.1035 21.692 65.9656 21.8957 65.8423 22.1095H13.7158C13.5889 21.8891 13.4467 21.6795 13.2971 21.4758L39.9335 6.93867ZM7.47131 21.6189C5.26184 21.6189 3.46436 23.374 3.46436 25.5318C3.46436 27.6919 5.26184 29.4488 7.47131 29.4488H32.934C33.8043 29.4488 34.5099 30.1373 34.5099 30.9865C34.5099 31.8352 33.8043 32.5237 32.934 32.5237H9.43237V36.4115H70.5109V32.5237H47.1198C46.2494 32.5237 45.5444 31.8352 45.5444 30.9865C45.5444 30.1373 46.2494 29.4488 47.1198 29.4488H72.0868C74.2963 29.4488 76.0944 27.6919 76.0944 25.5318C76.0944 23.374 74.2963 21.6189 72.0868 21.6189C70.4132 21.6189 68.9008 22.6474 68.3234 24.178C68.0951 24.7831 67.5049 25.1845 66.8445 25.1845H12.7136C12.0532 25.1845 11.463 24.7831 11.2347 24.178C10.6573 22.6474 9.1449 21.6189 7.47131 21.6189ZM12.1423 47.0851H15.3308V66.3255H12.1423V47.0851ZM5.14465 73.2888H74.856C75.9546 73.2888 76.8488 72.4157 76.8481 71.3425C76.8481 70.2722 75.9546 69.4009 74.8553 69.4009H5.14465C4.04541 69.4009 3.15186 70.2722 3.15186 71.3425C3.15186 72.4157 4.04541 73.2888 5.14465 73.2888ZM45.3748 15.9146C45.3748 19.0032 42.8009 21.5153 39.6375 21.5153C36.4709 21.5153 33.8953 19.0026 33.8953 15.9146C33.8953 12.8242 36.4709 10.3103 39.6375 10.3103C42.8009 10.3103 45.3748 12.8242 45.3748 15.9146ZM42.2235 15.9145C42.2235 14.5197 41.0632 13.3852 39.6375 13.3852C38.2086 13.3852 37.0471 14.5197 37.0471 15.9145C37.0471 17.307 38.2086 18.4397 39.6375 18.4397C41.0632 18.4397 42.2235 17.307 42.2235 15.9145ZM39.6198 32.5237H39.5929C38.7225 32.5237 38.017 31.8352 38.017 30.9865C38.017 30.1372 38.7225 29.4487 39.5929 29.4487H39.6198C40.4901 29.4487 41.1951 30.1372 41.1951 30.9865C41.1951 31.8352 40.4901 32.5237 39.6198 32.5237Z" fill="#3D3BEE"/>
</svg>
