<svg width="24" height="24" viewBox="0 0 24 24" fill="none" xmlns="http://www.w3.org/2000/svg">
<path fill-rule="evenodd" clip-rule="evenodd" d="M5.35041 0.388337L21.5823 9.49709C22.5102 10.0175 23.0649 10.9517 23.0649 11.9985C23.0664 13.0467 22.5117 13.9825 21.5838 14.5043L18.1513 16.4299C18.2053 16.3954 18.2559 16.3529 18.3014 16.3024C18.5787 15.998 18.5596 15.5241 18.2601 15.2437L17.8676 14.8756L20.8683 13.1922C21.3197 12.9387 21.5882 12.4918 21.5882 12C21.5882 11.5081 21.3182 11.0627 20.8698 10.8108L17.0507 8.66748L17.4384 8.27339C17.7261 7.98096 17.7261 7.50558 17.4384 7.21315C17.1508 6.92072 16.6831 6.92072 16.3954 7.21315L15.7067 7.91322L4.63639 1.70051C4.39888 1.56854 4.14071 1.50256 3.88255 1.50256C3.79803 1.50256 3.71351 1.50961 3.62973 1.52375L2.85874 0.800731C2.55926 0.5218 2.09309 0.539795 1.81575 0.84422C1.53988 1.14864 1.55759 1.62253 1.85706 1.90296L2.47387 2.48132C2.43203 2.61155 2.41027 2.74963 2.41027 2.89271V21.1072C2.41027 21.2065 2.42075 21.3033 2.44116 21.3968L1.79071 22.058C1.50304 22.3504 1.50304 22.8258 1.79071 23.1182C1.93528 23.2637 2.12411 23.3372 2.31294 23.3372C2.50177 23.3372 2.6906 23.2637 2.83369 23.1182L3.49464 22.4464C3.87455 22.5473 4.28033 22.4978 4.63787 22.2979L16.5065 15.6393L17.2584 16.3444C17.4 16.4779 17.58 16.5438 17.7585 16.5438C17.8687 16.5438 17.9783 16.5195 18.0791 16.4704L5.35189 23.6101C4.88866 23.871 4.38561 24 3.88256 24C3.35148 24 2.82187 23.856 2.34242 23.5681C1.46171 23.0387 0.935059 22.1195 0.935059 21.1072V2.89272C0.935059 1.88197 1.46024 0.962695 2.34095 0.433326C3.27477 -0.129035 4.40036 -0.144031 5.35041 0.388337ZM13.2218 12.5594L3.49464 22.4464C3.3557 22.4095 3.22022 22.3525 3.09183 22.2754C2.74727 22.0693 2.52003 21.7582 2.44116 21.3968L12.1367 11.5419L13.2218 12.5594ZM13.2218 12.5594L14.2659 11.498L17.8676 14.8756L16.5065 15.6393L13.2218 12.5594ZM12.1367 11.5419L2.47387 2.48132C2.57321 2.17205 2.78575 1.90706 3.08888 1.7245C3.25996 1.62202 3.44299 1.55526 3.62973 1.52375L13.1809 10.4805L12.1367 11.5419ZM13.1809 10.4805L15.7067 7.91322L17.0507 8.66748L14.2659 11.498L13.1809 10.4805ZM18.1513 16.4299L18.0791 16.4704C18.1037 16.4584 18.1278 16.4449 18.1513 16.4299Z" fill="white"/>
</svg>
