<svg width="187" height="44" viewBox="0 0 187 44" fill="none" xmlns="http://www.w3.org/2000/svg">
<rect x="1" y="1" width="26" height="42" rx="13" stroke="black" stroke-width="2"/>
<rect x="12.6" y="8.80005" width="2.8" height="7.33333" rx="1.4" fill="black"/>
<path d="M53.4639 23.3809C51.1543 23.3809 49.2207 24.1543 47.6631 25.6797C46.0947 27.2158 45.3213 29.085 45.3213 31.2979C45.3213 33.5107 46.0947 35.3906 47.6631 36.916C49.2207 38.4521 51.1543 39.2148 53.4639 39.2148C54.2373 39.2148 54.9893 39.1074 55.7197 38.8926C56.4502 38.6777 57.0518 38.4307 57.5029 38.1621C57.9541 37.8828 58.3838 37.5713 58.792 37.2275C59.2002 36.873 59.458 36.626 59.5762 36.4863C59.6943 36.3467 59.7803 36.2393 59.834 36.1533L58.2871 34.6064L58.1152 34.875C57.9863 35.0361 57.7822 35.2295 57.5029 35.4658C57.2236 35.7021 56.9121 35.9385 56.5469 36.1748C56.1816 36.4111 55.7305 36.6045 55.1826 36.7764C54.6348 36.9482 54.0547 37.0342 53.4531 37.0342C51.8525 37.0342 50.499 36.4756 49.3926 35.3691C48.2861 34.252 47.7275 32.8984 47.7275 31.3086C47.7275 29.708 48.2861 28.3545 49.3926 27.248C50.5098 26.1416 51.8633 25.5938 53.4531 25.5938C54.0547 25.5938 54.6348 25.6689 55.1719 25.8408C55.709 26.0127 56.1494 26.1953 56.4824 26.3887C56.8262 26.582 57.1377 26.8184 57.4277 27.0869C57.7285 27.3662 57.9111 27.5488 57.9971 27.6562C58.083 27.7637 58.1367 27.8389 58.1797 27.8926L59.7158 26.3457L59.4795 26.0449C59.3184 25.8408 59.0605 25.5938 58.7061 25.3037C58.3623 25.0244 57.9541 24.7344 57.4814 24.4336C57.0088 24.1436 56.418 23.8965 55.6982 23.6924C54.9893 23.4883 54.2373 23.3809 53.4639 23.3809ZM70.8125 28.4404H68.1699L63.6582 33.167V28.4404H61.4561V39H63.6582V36.0352L65.3125 34.2734L68.7178 39H71.1348L66.7412 32.8447L70.8125 28.4404ZM77.8057 39.2148C79.2021 39.2148 80.4053 38.6885 81.4365 37.6143C82.4678 36.54 82.9834 35.2402 82.9834 33.7148C82.9834 32.1895 82.4678 30.9004 81.4365 29.8262C80.4053 28.752 79.2021 28.2148 77.8057 28.2148C77.1826 28.2148 76.5811 28.3545 75.9902 28.6123C75.3887 28.8809 75.002 29.0957 74.8193 29.2568C74.6367 29.4287 74.4971 29.5576 74.4004 29.6543V28.4404H72.1982V43.6191H74.4004V37.7861L74.5508 37.9473C74.6367 38.0332 74.7871 38.1514 74.9912 38.3018C75.1953 38.4521 75.4316 38.5918 75.7002 38.7314C75.958 38.8711 76.2803 38.9893 76.6562 39.0752C77.0215 39.1719 77.4082 39.2148 77.8057 39.2148ZM77.5908 30.2021C78.4287 30.2021 79.1699 30.5459 79.8145 31.2334C80.459 31.9209 80.7812 32.7588 80.7812 33.7256C80.7812 34.6924 80.459 35.5195 79.8145 36.207C79.1699 36.8945 78.4287 37.2383 77.5908 37.2383C76.7529 37.2383 76.0117 36.8945 75.3672 36.207C74.7227 35.5195 74.4004 34.6924 74.4004 33.7256C74.4004 32.7588 74.7227 31.9209 75.3672 31.2334C76.0117 30.5459 76.7529 30.2021 77.5908 30.2021ZM92.8447 33.7256C92.8447 34.7139 92.5117 35.541 91.8672 36.2178C91.2119 36.9053 90.4385 37.2383 89.5469 37.2383C88.6445 37.2383 87.8711 36.9053 87.2158 36.2178C86.5605 35.541 86.2383 34.7139 86.2383 33.7256C86.2383 32.7373 86.5605 31.9102 87.2158 31.2227C87.8711 30.5459 88.6445 30.2021 89.5469 30.2021C90.4385 30.2021 91.2119 30.5459 91.8672 31.2227C92.5117 31.9102 92.8447 32.7373 92.8447 33.7256ZM84.0469 33.7256C84.0469 35.208 84.584 36.4863 85.6797 37.582C86.7754 38.6777 88.0645 39.2256 89.5469 39.2256C91.0293 39.2256 92.3076 38.6777 93.4033 37.582C94.499 36.4863 95.0469 35.208 95.0469 33.7256C95.0469 32.2432 94.499 30.9541 93.4033 29.8584C92.3076 28.7627 91.0293 28.2148 89.5469 28.2148C88.0645 28.2148 86.7754 28.7627 85.6797 29.8584C84.584 30.9541 84.0469 32.2432 84.0469 33.7256ZM97.9902 28.4404V31.5234C97.9902 33.0381 97.8936 34.209 97.7217 35.0469C97.5498 35.8848 97.3242 36.4219 97.0664 36.6689C96.8086 36.9053 96.4541 37.0342 96.0029 37.0342C95.7881 37.0234 95.5303 36.9805 95.2402 36.916V39.0107L95.4336 39.0537C95.5518 39.0967 95.7236 39.1289 95.9385 39.1719C96.1533 39.2041 96.3682 39.2256 96.5615 39.2256C97.3457 39.2256 97.9902 39.0215 98.4844 38.6348C98.9785 38.2373 99.3867 37.4531 99.709 36.293C100.031 35.1328 100.182 33.543 100.182 31.5342V30.4277H103.92V39.0107H106.122V28.4512L97.9902 28.4404ZM110.73 37.1309V33.6074H113.147C113.642 33.6074 114.061 33.7793 114.404 34.1123C114.737 34.4561 114.909 34.875 114.909 35.3691C114.909 35.874 114.737 36.293 114.404 36.626C114.061 36.9697 113.642 37.1309 113.147 37.1309H110.73ZM117.111 35.3799C117.111 34.3271 116.746 33.457 116.016 32.7695C115.285 32.082 114.329 31.7383 113.137 31.7383H110.72V28.4404H108.518V39H113.137C114.329 39 115.285 38.667 116.016 37.9795C116.746 37.3027 117.111 36.4326 117.111 35.3799ZM117.745 30.417H121.376V39H123.567V30.417H127.198V28.4404H117.745V30.417ZM138.273 34.4883L138.392 33.3926C138.392 31.9102 137.897 30.6855 136.909 29.6973C135.921 28.709 134.696 28.2148 133.214 28.2148C131.731 28.2148 130.464 28.752 129.411 29.8047C128.358 30.8574 127.821 32.125 127.821 33.6074C127.821 35.1543 128.369 36.4756 129.454 37.5713C130.539 38.667 131.828 39.2148 133.321 39.2148C133.88 39.2148 134.428 39.1396 134.954 38.9785C135.48 38.8174 135.91 38.6455 136.232 38.4521C136.565 38.2588 136.877 38.0439 137.167 37.7969C137.468 37.5498 137.661 37.3779 137.747 37.2705C137.833 37.1631 137.897 37.0879 137.94 37.0234L136.512 35.5947L136.179 36.0029C135.964 36.2715 135.588 36.54 135.051 36.8193C134.514 37.0986 133.944 37.2383 133.321 37.2383C132.473 37.2383 131.742 36.9697 131.119 36.4219C130.496 35.8848 130.131 35.2402 130.013 34.4883H138.273ZM133.203 30.0947C134.02 30.0947 134.686 30.3311 135.223 30.8037C135.76 31.2764 136.093 31.8779 136.222 32.6191H130.109C130.303 31.8779 130.668 31.2764 131.205 30.8037C131.742 30.3311 132.408 30.0947 133.203 30.0947ZM143.827 28.4404V39H149.112C150.229 39 151.121 38.7207 151.766 38.1406C152.41 37.5713 152.743 36.8301 152.743 35.917C152.743 35.5732 152.679 35.2402 152.55 34.9395C152.421 34.6387 152.281 34.4023 152.131 34.2305C151.98 34.0586 151.798 33.8975 151.594 33.7471C151.379 33.5967 151.239 33.5107 151.164 33.4678C151.078 33.4355 151.024 33.4141 150.981 33.4033L151.282 33.1992C151.486 33.0488 151.69 32.791 151.884 32.4258C152.077 32.0605 152.185 31.6523 152.185 31.2012C152.185 30.4062 151.884 29.7402 151.293 29.2246C150.691 28.709 149.896 28.4512 148.887 28.4512L143.827 28.4404ZM149.112 34.2842C149.531 34.2842 149.875 34.4238 150.144 34.7031C150.401 34.9824 150.541 35.3154 150.541 35.7129C150.541 36.1426 150.412 36.4971 150.154 36.7549C149.896 37.0127 149.542 37.1416 149.112 37.1416H146.029V34.2842H149.112ZM149.993 31.416C149.993 31.7598 149.886 32.0283 149.692 32.2217C149.488 32.415 149.22 32.5225 148.887 32.5225H146.029V30.3203H148.887C149.22 30.3203 149.488 30.417 149.692 30.6104C149.886 30.8037 149.993 31.0723 149.993 31.416ZM156.664 34.5957H161.831V39H164.033V28.4404H161.831V32.6191H156.664V28.4404H154.462V39H156.664V34.5957ZM174.131 28.4404L168.631 35.3691V28.4404H166.429V39H168.405L173.905 32.0713V39H176.107V28.4404H174.131ZM185.539 31.1904C185.539 30.3848 185.185 29.6865 184.476 29.0957C183.767 28.5156 182.8 28.2148 181.586 28.2148C180.834 28.2148 180.125 28.3652 179.459 28.6445C178.793 28.9346 178.363 29.1602 178.17 29.332C177.977 29.5039 177.826 29.6543 177.729 29.7617L179.169 31.1904L179.448 30.9434C179.642 30.7715 179.932 30.6104 180.34 30.4492C180.748 30.2881 181.156 30.2021 181.586 30.2021C182.155 30.2021 182.596 30.3203 182.896 30.5459C183.197 30.7715 183.348 31.0615 183.348 31.416C183.348 31.7705 183.197 32.0605 182.896 32.2861C182.596 32.5117 182.155 32.6191 181.586 32.6191H180.372V34.3809H181.586C182.316 34.3809 182.864 34.5205 183.229 34.7891C183.595 35.0684 183.788 35.4014 183.788 35.8096C183.788 36.2178 183.595 36.5615 183.229 36.8301C182.864 37.1094 182.316 37.2383 181.586 37.2383C181.092 37.2383 180.608 37.1201 180.125 36.8838C179.642 36.6475 179.33 36.4434 179.18 36.293C179.029 36.1426 178.922 36.0244 178.836 35.917L177.407 37.3457L177.558 37.5498C177.665 37.6787 177.848 37.8398 178.084 38.0225C178.32 38.2051 178.589 38.3877 178.911 38.5596C179.223 38.7422 179.62 38.8926 180.093 39.0215C180.565 39.1504 181.06 39.2148 181.575 39.2148C182.939 39.2148 184.014 38.9141 184.798 38.291C185.582 37.668 185.969 36.916 185.969 36.0352C185.969 35.6377 185.894 35.2725 185.743 34.9502C185.593 34.6279 185.421 34.3809 185.238 34.1982C185.056 34.0156 184.852 33.8545 184.615 33.7256C184.379 33.5967 184.218 33.5107 184.121 33.4785C184.024 33.4355 183.949 33.4141 183.885 33.4033L184.304 33.1992C184.583 33.0811 184.862 32.8447 185.131 32.4795C185.399 32.1143 185.539 31.6846 185.539 31.1904Z" fill="black"/>
</svg>
