<svg width="227" height="44" viewBox="0 0 227 44" fill="none" xmlns="http://www.w3.org/2000/svg">
<path d="M60.7979 39C62.2051 39 63.3867 38.5596 64.332 37.668C65.2773 36.7871 65.75 35.7236 65.75 34.4883C65.75 34.0264 65.6641 33.5752 65.4922 33.1455C65.3203 32.7158 65.1377 32.3613 64.9443 32.0928C64.751 31.8135 64.5146 31.5664 64.2461 31.3408C63.9668 31.1152 63.7842 30.9648 63.6768 30.9004C63.5693 30.8359 63.4941 30.7822 63.4404 30.7607L63.8379 30.4492C64.085 30.2451 64.332 29.8906 64.5898 29.375C64.8477 28.8594 64.9766 28.29 64.9766 27.6777C64.9766 26.6035 64.5361 25.6582 63.6553 24.8418C62.7744 24.0146 61.7109 23.6064 60.4648 23.6064H54.2021V39.0107L60.7979 39ZM56.6191 36.916V31.8564H60.7979C61.5176 31.8564 62.1191 32.0928 62.6025 32.5869C63.0859 33.0703 63.333 33.6719 63.333 34.3916C63.333 35.1006 63.0859 35.7021 62.6025 36.1855C62.1084 36.6689 61.5068 36.916 60.7979 36.916H56.6191ZM60.4648 25.7012C61.0664 25.7012 61.5605 25.8945 61.958 26.292C62.3555 26.6895 62.5596 27.1836 62.5596 27.7852C62.5596 28.3867 62.3555 28.8809 61.958 29.2783C61.5605 29.6758 61.0664 29.8799 60.4648 29.8799H56.6191V25.7012H60.4648ZM77.5879 34.4883L77.7061 33.3926C77.7061 31.9102 77.2119 30.6855 76.2236 29.6973C75.2354 28.709 74.0107 28.2148 72.5283 28.2148C71.0459 28.2148 69.7783 28.752 68.7256 29.8047C67.6729 30.8574 67.1357 32.125 67.1357 33.6074C67.1357 35.1543 67.6836 36.4756 68.7686 37.5713C69.8535 38.667 71.1426 39.2148 72.6357 39.2148C73.1943 39.2148 73.7422 39.1396 74.2686 38.9785C74.7949 38.8174 75.2246 38.6455 75.5469 38.4521C75.8799 38.2588 76.1914 38.0439 76.4814 37.7969C76.7822 37.5498 76.9756 37.3779 77.0615 37.2705C77.1475 37.1631 77.2119 37.0879 77.2549 37.0234L75.8262 35.5947L75.4932 36.0029C75.2783 36.2715 74.9023 36.54 74.3652 36.8193C73.8281 37.0986 73.2588 37.2383 72.6357 37.2383C71.7871 37.2383 71.0566 36.9697 70.4336 36.4219C69.8105 35.8848 69.4453 35.2402 69.3271 34.4883H77.5879ZM72.5176 30.0947C73.334 30.0947 74 30.3311 74.5371 30.8037C75.0742 31.2764 75.4072 31.8779 75.5361 32.6191H69.4238C69.6172 31.8779 69.9824 31.2764 70.5195 30.8037C71.0566 30.3311 71.7227 30.0947 72.5176 30.0947ZM85.0322 39.2148C86.4287 39.2148 87.6318 38.6885 88.6631 37.6143C89.6943 36.54 90.21 35.2402 90.21 33.7148C90.21 32.1895 89.6943 30.9004 88.6631 29.8262C87.6318 28.752 86.4287 28.2148 85.0322 28.2148C84.4092 28.2148 83.8076 28.3545 83.2168 28.6123C82.6152 28.8809 82.2285 29.0957 82.0459 29.2568C81.8633 29.4287 81.7236 29.5576 81.627 29.6543V28.4404H79.4248V43.6191H81.627V37.7861L81.7773 37.9473C81.8633 38.0332 82.0137 38.1514 82.2178 38.3018C82.4219 38.4521 82.6582 38.5918 82.9268 38.7314C83.1846 38.8711 83.5068 38.9893 83.8828 39.0752C84.248 39.1719 84.6348 39.2148 85.0322 39.2148ZM84.8174 30.2021C85.6553 30.2021 86.3965 30.5459 87.041 31.2334C87.6855 31.9209 88.0078 32.7588 88.0078 33.7256C88.0078 34.6924 87.6855 35.5195 87.041 36.207C86.3965 36.8945 85.6553 37.2383 84.8174 37.2383C83.9795 37.2383 83.2383 36.8945 82.5938 36.207C81.9492 35.5195 81.627 34.6924 81.627 33.7256C81.627 32.7588 81.9492 31.9209 82.5938 31.2334C83.2383 30.5459 83.9795 30.2021 84.8174 30.2021ZM94.1309 34.5957H99.2979V39H101.5V28.4404H99.2979V32.6191H94.1309V28.4404H91.9287V39H94.1309V34.5957ZM106.431 40.0957C106.022 41.127 105.399 41.6426 104.562 41.6426C104.186 41.6426 103.82 41.5674 103.455 41.417V43.4043L103.605 43.4473C103.724 43.4902 103.917 43.5332 104.175 43.5654C104.433 43.6084 104.701 43.6191 105.002 43.6191C105.797 43.6191 106.463 43.3613 107 42.835C107.537 42.3193 108.074 41.4062 108.622 40.0957L113.359 28.4404H111.05L107.967 36.1426L104.884 28.4404H102.574L106.871 39L106.431 40.0957ZM113.327 30.417H116.958V39H119.149V30.417H122.78V28.4404H113.327V30.417ZM126.271 37.1309V33.6074H128.688C129.183 33.6074 129.602 33.7793 129.945 34.1123C130.278 34.4561 130.45 34.875 130.45 35.3691C130.45 35.874 130.278 36.293 129.945 36.626C129.602 36.9697 129.183 37.1309 128.688 37.1309H126.271ZM132.652 35.3799C132.652 34.3271 132.287 33.457 131.557 32.7695C130.826 32.082 129.87 31.7383 128.678 31.7383H126.261V28.4404H124.059V39H128.678C129.87 39 130.826 38.667 131.557 37.9795C132.287 37.3027 132.652 36.4326 132.652 35.3799ZM133.727 33.7256C133.727 35.208 134.264 36.4863 135.359 37.582C136.455 38.6777 137.744 39.2256 139.227 39.2256C139.731 39.2256 140.236 39.1396 140.741 38.9785C141.235 38.8174 141.644 38.6455 141.966 38.4521C142.277 38.2588 142.578 38.0439 142.868 37.7969C143.147 37.5498 143.341 37.3779 143.427 37.2705C143.513 37.1631 143.577 37.0879 143.62 37.0342L142.191 35.6055L141.858 36.0137C141.644 36.2715 141.289 36.5508 140.795 36.8301C140.301 37.1094 139.785 37.249 139.227 37.249C138.324 37.249 137.551 36.9053 136.896 36.2285C136.24 35.541 135.918 34.7139 135.918 33.7256C135.918 32.7373 136.24 31.9102 136.896 31.2334C137.551 30.5459 138.324 30.2129 139.227 30.2129C139.785 30.2129 140.301 30.3525 140.795 30.6426C141.289 30.9219 141.601 31.1475 141.751 31.3193C141.901 31.4912 142.009 31.6309 142.084 31.749L143.513 30.3203L143.051 29.8154C142.739 29.4609 142.234 29.1064 141.525 28.752C140.816 28.3975 140.043 28.2256 139.227 28.2256C137.744 28.2256 136.455 28.7734 135.359 29.8691C134.264 30.9648 133.727 32.2432 133.727 33.7256ZM148.647 28.4404C147.455 28.4404 146.499 28.7842 145.769 29.4717C145.038 30.1592 144.673 31.0186 144.673 32.0713C144.673 32.5439 144.759 32.9736 144.909 33.3818C145.06 33.79 145.231 34.1016 145.414 34.3271C145.597 34.5635 145.801 34.7676 146.037 34.9395C146.273 35.1113 146.445 35.2295 146.542 35.2725C146.639 35.3262 146.714 35.3584 146.768 35.3691L144.458 39H146.875L148.97 35.7021H151.279V39H153.471V28.4404H148.647ZM151.279 30.3096V33.833H148.637C148.143 33.833 147.724 33.6719 147.38 33.3281C147.047 32.9951 146.875 32.5762 146.875 32.0713C146.875 31.5771 147.047 31.1582 147.38 30.8145C147.724 30.4814 148.143 30.3096 148.637 30.3096H151.279ZM161.785 34.5957H166.952V39H169.154V28.4404H166.952V32.6191H161.785V28.4404H159.583V39H161.785V34.5957ZM180.025 39V32.1787C180.025 31.0615 179.606 30.127 178.79 29.3643C177.963 28.6016 176.91 28.2148 175.621 28.2148C175.105 28.2148 174.601 28.29 174.117 28.4297C173.634 28.5693 173.247 28.7305 172.957 28.9023C172.656 29.085 172.377 29.2891 172.119 29.5146C171.861 29.7402 171.689 29.9014 171.614 29.9873C171.539 30.0732 171.485 30.1484 171.442 30.2021L172.871 31.6309L173.161 31.2549C173.333 31.0186 173.645 30.793 174.096 30.5566C174.547 30.3203 175.062 30.2021 175.621 30.2021C176.266 30.2021 176.792 30.3955 177.2 30.7715C177.608 31.1582 177.823 31.6201 177.823 32.1787L173.967 32.8447C173.011 33.0059 172.259 33.3818 171.711 33.9619C171.163 34.5527 170.895 35.2832 170.895 36.1533C170.895 36.9482 171.249 37.668 171.958 38.291C172.667 38.9141 173.559 39.2256 174.633 39.2256C174.998 39.2256 175.353 39.1719 175.718 39.0859C176.072 38.9893 176.373 38.8818 176.609 38.7637C176.846 38.6455 177.061 38.5166 177.265 38.3662C177.469 38.2158 177.608 38.1191 177.673 38.0547C177.737 37.9902 177.791 37.9365 177.823 37.915V39.0107L180.025 39ZM174.966 37.249C174.386 37.249 173.935 37.1094 173.591 36.8516C173.247 36.583 173.086 36.2715 173.086 35.917C173.086 35.541 173.204 35.2295 173.451 34.9824C173.688 34.7246 174.01 34.5635 174.407 34.499L177.823 33.9512V34.166C177.823 35.1543 177.565 35.9062 177.061 36.4434C176.556 36.9805 175.857 37.249 174.966 37.249ZM182.421 28.4404V39H187.706C188.823 39 189.715 38.7207 190.359 38.1406C191.004 37.5713 191.337 36.8301 191.337 35.917C191.337 35.5732 191.272 35.2402 191.144 34.9395C191.015 34.6387 190.875 34.4023 190.725 34.2305C190.574 34.0586 190.392 33.8975 190.188 33.7471C189.973 33.5967 189.833 33.5107 189.758 33.4678C189.672 33.4355 189.618 33.4141 189.575 33.4033L189.876 33.1992C190.08 33.0488 190.284 32.791 190.478 32.4258C190.671 32.0605 190.778 31.6523 190.778 31.2012C190.778 30.4062 190.478 29.7402 189.887 29.2246C189.285 28.709 188.49 28.4512 187.48 28.4512L182.421 28.4404ZM187.706 34.2842C188.125 34.2842 188.469 34.4238 188.737 34.7031C188.995 34.9824 189.135 35.3154 189.135 35.7129C189.135 36.1426 189.006 36.4971 188.748 36.7549C188.49 37.0127 188.136 37.1416 187.706 37.1416H184.623V34.2842H187.706ZM188.587 31.416C188.587 31.7598 188.479 32.0283 188.286 32.2217C188.082 32.415 187.813 32.5225 187.48 32.5225H184.623V30.3203H187.48C187.813 30.3203 188.082 30.417 188.286 30.6104C188.479 30.8037 188.587 31.0723 188.587 31.416ZM202.842 34.4883L202.96 33.3926C202.96 31.9102 202.466 30.6855 201.478 29.6973C200.489 28.709 199.265 28.2148 197.782 28.2148C196.3 28.2148 195.032 28.752 193.979 29.8047C192.927 30.8574 192.39 32.125 192.39 33.6074C192.39 35.1543 192.938 36.4756 194.022 37.5713C195.107 38.667 196.396 39.2148 197.89 39.2148C198.448 39.2148 198.996 39.1396 199.522 38.9785C200.049 38.8174 200.479 38.6455 200.801 38.4521C201.134 38.2588 201.445 38.0439 201.735 37.7969C202.036 37.5498 202.229 37.3779 202.315 37.2705C202.401 37.1631 202.466 37.0879 202.509 37.0234L201.08 35.5947L200.747 36.0029C200.532 36.2715 200.156 36.54 199.619 36.8193C199.082 37.0986 198.513 37.2383 197.89 37.2383C197.041 37.2383 196.311 36.9697 195.688 36.4219C195.064 35.8848 194.699 35.2402 194.581 34.4883H202.842ZM197.771 30.0947C198.588 30.0947 199.254 30.3311 199.791 30.8037C200.328 31.2764 200.661 31.8779 200.79 32.6191H194.678C194.871 31.8779 195.236 31.2764 195.773 30.8037C196.311 30.3311 196.977 30.0947 197.771 30.0947ZM210.286 39.2148C211.683 39.2148 212.886 38.6885 213.917 37.6143C214.948 36.54 215.464 35.2402 215.464 33.7148C215.464 32.1895 214.948 30.9004 213.917 29.8262C212.886 28.752 211.683 28.2148 210.286 28.2148C209.663 28.2148 209.062 28.3545 208.471 28.6123C207.869 28.8809 207.482 29.0957 207.3 29.2568C207.117 29.4287 206.978 29.5576 206.881 29.6543V28.4404H204.679V43.6191H206.881V37.7861L207.031 37.9473C207.117 38.0332 207.268 38.1514 207.472 38.3018C207.676 38.4521 207.912 38.5918 208.181 38.7314C208.438 38.8711 208.761 38.9893 209.137 39.0752C209.502 39.1719 209.889 39.2148 210.286 39.2148ZM210.071 30.2021C210.909 30.2021 211.65 30.5459 212.295 31.2334C212.939 31.9209 213.262 32.7588 213.262 33.7256C213.262 34.6924 212.939 35.5195 212.295 36.207C211.65 36.8945 210.909 37.2383 210.071 37.2383C209.233 37.2383 208.492 36.8945 207.848 36.207C207.203 35.5195 206.881 34.6924 206.881 33.7256C206.881 32.7588 207.203 31.9209 207.848 31.2334C208.492 30.5459 209.233 30.2021 210.071 30.2021ZM222.468 33.5L226.099 28.4404H223.563L221.146 31.8457L218.719 28.4404H216.194L219.825 33.5L215.861 39H218.396L221.146 35.1543L223.896 39H226.421L222.468 33.5Z" fill="black"/>
<path fill-rule="evenodd" clip-rule="evenodd" d="M21.0353 0.399288L7.39846 14.0082C6.86718 14.5383 6.86718 15.4007 7.39846 15.9331C7.93194 16.4633 8.79609 16.4633 9.32736 15.9331L20.6473 4.63419L20.6473 42.6382C20.6473 43.3906 21.2579 44 22.0118 44C22.7658 44 23.3764 43.3906 23.3764 42.6382L23.3764 4.66058L34.6721 15.9331C35.2034 16.4633 36.0675 16.4633 36.601 15.9331C36.8655 15.6647 37 15.3171 37 14.9695C37 14.6219 36.8655 14.2721 36.601 14.0082L22.9642 0.399288C22.4307 -0.133099 21.5688 -0.133099 21.0353 0.399288Z" fill="black"/>
</svg>
