<svg width="24" height="22" viewBox="0 0 24 22" fill="none" xmlns="http://www.w3.org/2000/svg">
<path fill-rule="evenodd" clip-rule="evenodd" d="M0 19.1818C0 20.6863 1.23303 21.909 2.75006 21.909H21.2499C22.767 21.909 24 20.6863 24 19.1818V4.30577V2.81816C24 1.31367 22.767 0.0908203 21.2499 0.0908203H2.75006C1.23303 0.0908203 0 1.31367 0 2.81816V4.30577V19.1818ZM22.5 19.1818V5.04957H1.5V19.1818C1.5 19.8652 2.06104 20.4214 2.75006 20.4214H21.2499C21.939 20.4214 22.5 19.8652 22.5 19.1818ZM1.5 3.56196H22.5V2.81815C22.5 2.13482 21.939 1.57842 21.2499 1.57842H2.75006C2.06104 1.57842 1.5 2.13482 1.5 2.81815V3.56196ZM14.5865 15.8155C14.107 16.3372 13.4696 16.7139 12.75 16.8703V18.1899C12.75 18.6005 12.414 18.9337 12 18.9337C11.586 18.9337 11.25 18.6005 11.25 18.1899V16.8703C10.5304 16.7139 9.89295 16.3372 9.41342 15.8155L8.26593 16.4734C8.14691 16.5418 8.01801 16.5734 7.89093 16.5734C7.63202 16.5734 7.38007 16.4407 7.24109 16.2015C7.034 15.8456 7.15705 15.3912 7.51502 15.185L8.66282 14.527C8.55703 14.1963 8.49994 13.8443 8.49994 13.4793C8.49994 13.114 8.55715 12.7616 8.66316 12.4306L7.51502 11.7725C7.15705 11.5662 7.034 11.112 7.24109 10.7559C7.44892 10.4009 7.90796 10.2789 8.26593 10.4843L9.41413 11.1424C9.89358 10.6211 10.5308 10.2448 11.25 10.0884V8.76857C11.25 8.35799 11.586 8.02477 12 8.02477C12.414 8.02477 12.75 8.35799 12.75 8.76857V10.0884C13.4692 10.2448 14.1064 10.6211 14.5859 11.1424L15.7341 10.4843C16.092 10.2789 16.5511 10.4009 16.7589 10.7559C16.966 11.112 16.843 11.5662 16.485 11.7725L15.3368 12.4306C15.4428 12.7616 15.5001 13.114 15.5001 13.4793C15.5001 13.8443 15.443 14.1963 15.3372 14.5271L16.485 15.185C16.843 15.3913 16.966 15.8457 16.7589 16.2016C16.6199 16.4407 16.368 16.5735 16.1091 16.5735C15.982 16.5735 15.852 16.5419 15.7341 16.4734L14.5865 15.8155ZM13.6976 14.5273C13.3458 15.0859 12.7216 15.4592 12.0106 15.4628L12 15.4628L11.9894 15.4628C11.2785 15.4592 10.6543 15.086 10.3025 14.5275C10.2927 14.5064 10.2819 14.4856 10.27 14.4651C10.2582 14.4449 10.2456 14.4255 10.2323 14.4068C10.084 14.1299 9.99994 13.8142 9.99994 13.4793C9.99994 13.1425 10.085 12.825 10.2349 12.5469C10.2473 12.5295 10.259 12.5113 10.27 12.4925C10.2811 12.4734 10.2913 12.4539 10.3005 12.4343C10.6538 11.8713 11.2834 11.4958 12 11.4958C12.7166 11.4958 13.3462 11.8712 13.6994 12.4342C13.7087 12.4539 13.7188 12.4733 13.73 12.4925C13.7412 12.5118 13.7532 12.5305 13.7659 12.5484C13.9153 12.8261 14.0001 13.1431 14.0001 13.4793C14.0001 13.8143 13.9159 14.1301 13.7676 14.4071C13.7543 14.4257 13.7417 14.4451 13.73 14.4652C13.7181 14.4856 13.7073 14.5063 13.6976 14.5273Z" fill="white"/>
</svg>
